<svg width="15" height="18" viewBox="0 0 15 18" fill="none" xmlns="http://www.w3.org/2000/svg">
<path d="M0.747917 14.3828C0.922999 14.639 1.17625 14.8289 1.46834 14.9228C2.31404 15.1788 3.18107 15.3547 4.05844 15.4485C5.18721 15.5795 6.32259 15.6436 7.45865 15.6405C8.59549 15.6437 9.73149 15.5796 10.861 15.4485C11.7384 15.3547 12.6054 15.1788 13.4511 14.9228C13.7432 14.8289 13.9966 14.639 14.1717 14.3828C14.3354 14.1407 14.4225 13.8534 14.4213 13.5594C14.4212 13.3663 14.383 13.1753 14.309 12.9975C14.2349 12.8198 14.1266 12.6591 13.9904 12.5249C13.5426 12.0631 13.2184 11.4921 13.0485 10.8663C12.8914 10.3288 12.812 9.77088 12.813 9.21007C12.813 8.97003 12.8248 8.78042 12.8366 8.6244C12.8555 8.41557 12.8696 8.20191 12.8696 7.98348C12.8708 7.75199 12.8535 7.52082 12.8178 7.29221C12.6124 6.00692 11.9667 4.83749 10.9953 3.99177C10.3917 3.46125 9.67989 3.07426 8.91144 2.85882C9.12628 2.55294 9.24155 2.18605 9.24107 1.80985C9.24107 1.32985 9.054 0.869522 8.72105 0.53011C8.3881 0.190699 7.93653 0 7.46566 0C6.9952 0.000636054 6.54421 0.191647 6.21177 0.530989C5.87933 0.870332 5.69267 1.33027 5.69267 1.80985C5.69219 2.18605 5.80746 2.55294 6.02229 2.85882C5.25385 3.07426 4.54201 3.46125 3.93841 3.99177C2.96703 4.83749 2.32122 6.00692 2.11586 7.29221C2.08016 7.52082 2.0629 7.75199 2.06413 7.98348C2.06413 8.20191 2.07829 8.41557 2.09712 8.6244C2.09712 8.78042 2.12058 8.97964 2.12058 9.21007C2.12425 9.77022 2.04899 10.328 1.89695 10.8663C1.72371 11.4933 1.39527 12.0645 0.943256 12.5249C0.807071 12.6591 0.698805 12.8198 0.624781 12.9975C0.550756 13.1753 0.512581 13.3663 0.512452 13.5594C0.507106 13.8519 0.589236 14.1391 0.747917 14.3828ZM6.86999 2.41234C6.71645 2.25114 6.63179 2.03452 6.63452 1.80985C6.63215 1.58597 6.71681 1.37023 6.86999 1.20977C7.02753 1.05384 7.23907 0.967586 7.45865 0.96974C7.67904 0.96695 7.89148 1.05325 8.04961 1.20977C8.20279 1.37023 8.28744 1.58597 8.28507 1.80985C8.28781 2.03452 8.20315 2.25114 8.04961 2.41234C7.89148 2.56885 7.67904 2.65516 7.45865 2.65237C7.34871 2.65452 7.23944 2.63444 7.13718 2.59324C7.03493 2.55204 6.94165 2.49053 6.86286 2.41234H6.86999Z" fill="#EBA79D"/>
<path d="M8.38861 16.0486C8.32723 16.0408 8.26495 16.0455 8.20535 16.0623C8.14574 16.0791 8.09004 16.1078 8.04128 16.1465C7.99252 16.1853 7.95174 16.2335 7.92125 16.2884C7.89076 16.3432 7.87111 16.4036 7.86353 16.4662C7.84462 16.6237 7.7701 16.7687 7.65394 16.8743C7.53602 16.9815 7.38343 17.0404 7.22543 17.0399C7.06932 17.0401 6.91858 16.9821 6.80164 16.8767C6.68494 16.7722 6.6095 16.628 6.58963 16.471C6.57322 16.3451 6.50857 16.2309 6.4097 16.1535C6.31083 16.0761 6.18587 16.0418 6.06225 16.0582C6.00086 16.0662 5.94155 16.0864 5.88784 16.1178C5.83413 16.1491 5.78702 16.191 5.74918 16.2409C5.71135 16.2908 5.68362 16.3479 5.66744 16.4088C5.65125 16.4697 5.64698 16.5333 5.6549 16.5958C5.7047 16.9823 5.89039 17.3371 6.17757 17.5944C6.46625 17.856 6.83919 18.0003 7.22543 18C7.61453 17.9996 7.98993 17.8536 8.28031 17.5896C8.56775 17.3291 8.75201 16.9706 8.79838 16.5814C8.81301 16.4554 8.77811 16.3287 8.70134 16.2288C8.62457 16.129 8.51212 16.0642 8.38861 16.0486Z" fill="#EBA79D"/>
</svg>
