<svg width="35" height="35" viewBox="0 0 35 35" fill="none" xmlns="http://www.w3.org/2000/svg">
<rect x="0.130585" width="34.1306" height="34.1306" rx="13.1271" fill="white"/>
<path d="M17.2503 6.02041C14.483 6.00324 11.8047 7.01058 9.71714 8.85362C7.62958 10.6967 6.27621 13.2489 5.91067 16.0319C5.54512 18.8149 6.1925 21.6376 7.7315 23.971C9.27049 26.3043 11.5954 27.9882 14.2705 28.7068C14.2421 26.7554 14.2374 23.9965 14.2421 22.5738H11.5228C11.3695 22.5738 11.2225 22.512 11.1141 22.402C11.0057 22.2921 10.9449 22.1429 10.9449 21.9874V18.9161C10.9461 18.7614 11.0076 18.6135 11.1158 18.5046C11.2241 18.3956 11.3703 18.3345 11.5228 18.3345H14.2705C14.3037 15.8015 14.3463 15.1863 14.3463 15.1863C14.3463 14.6308 14.4542 14.0808 14.6637 13.5677C14.8732 13.0545 15.1802 12.5882 15.5673 12.1955C15.9544 11.8027 16.414 11.4911 16.9198 11.2786C17.4256 11.066 17.9678 10.9566 18.5152 10.9566H21.1208C21.2415 10.9566 21.361 10.9807 21.4725 11.0276C21.5841 11.0745 21.6854 11.1431 21.7707 11.2297C21.8561 11.3163 21.9237 11.4191 21.9699 11.5322C22.0161 11.6454 22.0399 11.7666 22.0399 11.8891V15.1863H19.9507C19.6194 15.1876 19.3019 15.3216 19.0676 15.5593C18.8334 15.797 18.7012 16.119 18.7 16.4552C18.7 17.229 18.7 17.0848 18.7 18.3345H21.5424C21.6102 18.3345 21.6774 18.3481 21.7401 18.3744C21.8027 18.4007 21.8596 18.4393 21.9075 18.488C21.9555 18.5366 21.9935 18.5944 22.0195 18.6579C22.0455 18.7215 22.0588 18.7896 22.0588 18.8584V22.0307C22.0588 22.0995 22.0455 22.1676 22.0195 22.2312C21.9935 22.2947 21.9555 22.3525 21.9075 22.4011C21.8596 22.4498 21.8027 22.4884 21.7401 22.5147C21.6774 22.541 21.6102 22.5546 21.5424 22.5546H18.7C18.7 23.9965 18.7 26.9765 18.7 29C21.6024 28.672 24.2691 27.2234 26.1474 24.9546C28.0257 22.6858 28.9714 19.7708 28.7887 16.8137C28.606 13.8565 27.3086 11.0842 25.1658 9.07114C23.0229 7.05813 20.1988 5.95886 17.2787 6.00118L17.2503 6.02041Z" fill="#593936"/>
</svg>
