<svg width="24" height="27" viewBox="0 0 24 27" fill="none" xmlns="http://www.w3.org/2000/svg">
<path d="M9.58061 3.4825C11.2373 1.02317 13.7281 0.305 16.0194 0.996042C18.4928 1.74133 20.6674 4.09346 21.3896 7.36913C21.4269 7.53704 21.4592 7.70496 21.4864 7.87288C20.4439 7.46161 19.31 7.42992 18.2501 7.78246C16.7486 6.55279 14.8889 6.34612 13.2358 7.02037C11.1649 7.86642 9.54795 10.0119 9.17345 12.7115C8.69511 16.168 10.5968 19.2731 13.2859 21.9133L13.7386 22.3473C13.3734 22.3757 13.0024 22.3124 12.6478 22.2285C12.4655 22.1851 12.2843 22.1368 12.1041 22.0838L11.4776 21.89C5.90795 20.1553 2.17928 17.4415 1.10945 13.3857C0.255447 10.1488 1.07678 6.908 2.88278 4.893C4.55578 3.02654 7.03611 2.26963 9.58061 3.4825ZM11.4799 13.1028C11.9793 9.4965 15.7464 7.71917 17.6808 10.814C17.6993 10.8428 17.7273 10.8623 17.7588 10.8683C17.7902 10.8744 17.8226 10.8665 17.8488 10.8463C20.6219 8.67113 23.6121 11.7673 22.9669 15.3452C22.5936 17.4204 20.8553 19.1427 17.7519 20.5118L17.2444 20.7314L16.9376 20.8709C16.6728 20.9859 16.3928 21.0776 16.1396 21.0285C15.8876 20.9794 15.6531 20.7857 15.4396 20.579L15.0779 20.2173C12.3791 17.6461 11.1797 15.2746 11.4799 13.1028Z" fill="white"/>
</svg>
