<svg width="20" height="20" viewBox="0 0 20 20" fill="none" xmlns="http://www.w3.org/2000/svg">
<path d="M7.90668 2.53237C9.39347 0.256007 11.6289 -0.408728 13.6853 0.2309C15.905 0.920742 17.8566 3.09787 18.5047 6.12983C18.5382 6.28525 18.5672 6.44067 18.5916 6.5961C17.656 6.21543 16.6384 6.1861 15.6872 6.51241C14.3396 5.37423 12.6707 5.18294 11.187 5.80702C9.32855 6.59012 7.87737 8.57596 7.54127 11.0747C7.11199 14.274 8.81865 17.1482 11.2321 19.5919L11.6383 19.9936C11.3106 20.0199 10.9776 19.9613 10.6593 19.8836C10.4958 19.8434 10.3331 19.7988 10.1714 19.7497L9.60916 19.5704C4.61063 17.9647 1.26431 15.4529 0.304183 11.6988C-0.462245 8.70269 0.274866 5.70301 1.89567 3.83792C3.39712 2.11033 5.62311 1.40973 7.90668 2.53237ZM9.61125 11.4369C10.0594 8.09892 13.4402 6.45382 15.1762 9.3184C15.1929 9.34503 15.218 9.36309 15.2462 9.36869C15.2745 9.37428 15.3035 9.36695 15.327 9.34829C17.8158 7.33496 20.4993 10.2007 19.9203 13.5125C19.5853 15.4333 18.0252 17.0274 15.2401 18.2947L14.7846 18.498L14.5093 18.6271C14.2716 18.7335 14.0203 18.8184 13.7931 18.7729C13.5669 18.7275 13.3565 18.5482 13.1649 18.3569L12.8403 18.0221C10.4182 15.6422 9.34181 13.4471 9.61125 11.4369Z" fill="#EBA79D"/>
</svg>
