<svg width="35" height="35" viewBox="0 0 35 35" fill="none" xmlns="http://www.w3.org/2000/svg">
<rect width="34.1306" height="34.1306" rx="13.1271" fill="white"/>
<path d="M24.3591 26.7739C23.9974 25.5615 24.4208 24.2626 24.8936 23.0873C25.6941 21.2352 26.131 19.2456 26.1803 17.2275C26.1803 13.5862 24.9223 9.82945 22.2213 7.30984C20.8465 6.05919 19.0773 5.33274 17.2228 5.25737C15.3683 5.182 13.5464 5.76249 12.0752 6.89747C8.86439 9.37171 7.83247 13.5408 7.8777 17.4254V19.2893M21.1483 10.8893C19.5368 8.82739 17.3209 8.00264 15.0475 9.00884C13.2633 9.80059 12.071 11.5408 11.4626 13.3429C10.6938 15.6109 11.0515 17.9903 10.8007 20.3326C10.665 21.6564 10.1922 23.0254 9.15623 23.8419M22.3036 12.9882C22.8119 14.3359 23.0684 15.766 23.06 17.2068C23.0513 19.0279 22.6296 20.823 21.8267 22.4564C21.3703 23.3924 20.4083 25.0419 19.1339 24.3945C18.0938 23.8667 18.2664 22.6461 18.5624 21.7141C19.1257 19.945 19.9479 18.4151 20.0301 16.5099C20.1082 14.7243 19.5491 12.848 17.7814 12.0975C17.2783 11.8808 16.7175 11.8381 16.1876 11.9762C15.6576 12.1143 15.1885 12.4254 14.8542 12.8604C13.3537 14.9223 14.2006 17.2068 13.5058 19.479M16.289 19.8419C15.6066 21.7553 14.8255 24.0358 15.4668 26.0646C16.252 28.5389 19.0763 29.3884 21.3457 28.5884M13.1029 22.2378C12.8899 23.023 12.5849 23.7802 12.1943 24.4935C11.8023 25.2096 11.2367 25.8152 10.5499 26.2543M16.9262 17.1738C17.0849 16.475 17.1293 15.755 17.0578 15.0419C17.1472 15.7545 17.1026 16.4777 16.9262 17.1738Z" stroke="#593936" stroke-width="1.42515" stroke-linecap="round" stroke-linejoin="round"/>
</svg>
