<svg width="32" height="22" viewBox="0 0 32 22" fill="none" xmlns="http://www.w3.org/2000/svg">
<path d="M28.1046 6.23561C27.3182 6.94998 26.3011 7.34455 25.2473 7.34398C24.2088 7.34509 23.2048 6.96421 22.4201 6.2715C21.8556 6.5389 21.33 6.88423 20.858 7.29775C20.8825 7.48485 20.8942 7.67349 20.8932 7.86224C20.8932 8.73301 20.671 9.58881 20.2483 10.3457C22.1236 11.2962 23.6394 12.8487 24.5619 14.7637C24.8088 14.7637 25.0658 14.7637 25.2976 14.7637C26.321 14.765 27.3427 14.6775 28.3515 14.502V11.6131C28.3515 11.409 28.4312 11.2132 28.5729 11.0689C28.7147 10.9245 28.9069 10.8434 29.1074 10.8434C29.3079 10.8434 29.5002 10.9245 29.642 11.0689C29.7837 11.2132 29.8633 11.409 29.8633 11.6131V14.1326C30.3243 13.9882 30.7661 13.7866 31.1786 13.5322C31.4847 13.3573 31.7375 13.0999 31.9093 12.7882C31.969 12.6635 32 12.5266 32 12.388C32.0018 11.4913 31.8296 10.6031 31.4932 9.77448C31.1568 8.94584 30.6628 8.19306 30.0397 7.55945C29.4745 7.00783 28.8198 6.55997 28.1046 6.23561Z" fill="#FF998A"/>
<path d="M28.1046 6.23561C27.3182 6.94998 26.3011 7.34455 25.2473 7.34398C24.2088 7.34509 23.2048 6.96421 22.4201 6.2715C21.8556 6.5389 21.33 6.88423 20.858 7.29775C20.8825 7.48485 20.8942 7.67349 20.8932 7.86224C20.8932 8.73301 20.671 9.58881 20.2483 10.3457C22.1236 11.2962 23.6394 12.8487 24.5619 14.7637C24.8088 14.7637 25.0658 14.7637 25.2976 14.7637C26.321 14.765 27.3427 14.6775 28.3515 14.502V11.6131C28.3515 11.409 28.4312 11.2132 28.5729 11.0689C28.7147 10.9245 28.9069 10.8434 29.1074 10.8434C29.3079 10.8434 29.5002 10.9245 29.642 11.0689C29.7837 11.2132 29.8633 11.409 29.8633 11.6131V14.1326C30.3243 13.9882 30.7661 13.7866 31.1786 13.5322C31.4847 13.3573 31.7375 13.0999 31.9093 12.7882C31.969 12.6635 32 12.5266 32 12.388C32.0018 11.4913 31.8296 10.6031 31.4932 9.77448C31.1568 8.94584 30.6628 8.19306 30.0397 7.55945C29.4745 7.00783 28.8198 6.55997 28.1046 6.23561Z" fill="black" fill-opacity="0.2"/>
<path d="M25.2322 5.78404C25.6009 5.78451 25.9662 5.71091 26.3069 5.56738C26.6476 5.42386 26.9571 5.21323 27.2177 4.94765C27.4787 4.68244 27.6857 4.36727 27.8267 4.02031C27.9677 3.67334 28.0399 3.30146 28.0392 2.92598C28.0434 2.5454 27.9728 2.16781 27.8317 1.81536C27.6907 1.4629 27.4819 1.14268 27.2177 0.873483C26.6848 0.352116 25.9712 0.0662275 25.2322 0.0781174C24.8584 0.0738481 24.4876 0.145641 24.1414 0.289267C23.7953 0.432893 23.4808 0.645461 23.2165 0.91451C22.9522 1.18371 22.7435 1.50393 22.6024 1.85638C22.4614 2.20884 22.3909 2.58643 22.3951 2.967C22.3944 3.34249 22.4665 3.71443 22.6075 4.0614C22.7484 4.40836 22.9554 4.72347 23.2165 4.98868C23.4841 5.25033 23.8001 5.45536 24.1461 5.59187C24.4921 5.72839 24.8613 5.79372 25.2322 5.78404Z" fill="#FF998A"/>
<path d="M25.2322 5.78404C25.6009 5.78451 25.9662 5.71091 26.3069 5.56738C26.6476 5.42386 26.9571 5.21323 27.2177 4.94765C27.4787 4.68244 27.6857 4.36727 27.8267 4.02031C27.9677 3.67334 28.0399 3.30146 28.0392 2.92598C28.0434 2.5454 27.9728 2.16781 27.8317 1.81536C27.6907 1.4629 27.4819 1.14268 27.2177 0.873483C26.6848 0.352116 25.9712 0.0662275 25.2322 0.0781174C24.8584 0.0738481 24.4876 0.145641 24.1414 0.289267C23.7953 0.432893 23.4808 0.645461 23.2165 0.91451C22.9522 1.18371 22.7435 1.50393 22.6024 1.85638C22.4614 2.20884 22.3909 2.58643 22.3951 2.967C22.3944 3.34249 22.4665 3.71443 22.6075 4.0614C22.7484 4.40836 22.9554 4.72347 23.2165 4.98868C23.4841 5.25033 23.8001 5.45536 24.1461 5.59187C24.4921 5.72839 24.8613 5.79372 25.2322 5.78404Z" fill="black" fill-opacity="0.2"/>
<path d="M6.70239 14.7843C6.94932 14.7843 7.2063 14.7843 7.43812 14.7843C8.34472 12.904 9.82201 11.3711 11.6511 10.4124C11.2121 9.64433 10.9808 8.77144 10.9808 7.88272C10.9832 7.65966 10.9984 7.43696 11.0262 7.2157C10.568 6.81966 10.0595 6.48826 9.51439 6.23048C8.72625 6.94519 7.70734 7.33971 6.65194 7.33884C5.61502 7.33964 4.61283 6.95878 3.82997 6.26643C3.13873 6.59821 2.50819 7.04764 1.96543 7.5954C1.34165 8.22876 0.846877 8.98138 0.5096 9.81C0.172323 10.6386 -0.00088601 11.5269 3.40801e-06 12.4239C0.00174701 12.563 0.0345798 12.6998 0.0958449 12.8241C0.172575 12.9819 0.278623 13.1231 0.408222 13.2398C0.827296 13.6071 1.31378 13.8861 1.83945 14.0607L2.01575 14.1223V11.6491C2.01575 11.445 2.09545 11.2492 2.23721 11.1048C2.37897 10.9605 2.57118 10.8794 2.77166 10.8794C2.97213 10.8794 3.16447 10.9605 3.30623 11.1048C3.44799 11.2492 3.52756 11.445 3.52756 11.6491V14.5174C4.57589 14.7027 5.63842 14.792 6.70239 14.7843Z" fill="#FF998A"/>
<path d="M6.70239 14.7843C6.94932 14.7843 7.2063 14.7843 7.43812 14.7843C8.34472 12.904 9.82201 11.3711 11.6511 10.4124C11.2121 9.64433 10.9808 8.77144 10.9808 7.88272C10.9832 7.65966 10.9984 7.43696 11.0262 7.2157C10.568 6.81966 10.0595 6.48826 9.51439 6.23048C8.72625 6.94519 7.70734 7.33971 6.65194 7.33884C5.61502 7.33964 4.61283 6.95878 3.82997 6.26643C3.13873 6.59821 2.50819 7.04764 1.96543 7.5954C1.34165 8.22876 0.846877 8.98138 0.5096 9.81C0.172323 10.6386 -0.00088601 11.5269 3.40801e-06 12.4239C0.00174701 12.563 0.0345798 12.6998 0.0958449 12.8241C0.172575 12.9819 0.278623 13.1231 0.408222 13.2398C0.827296 13.6071 1.31378 13.8861 1.83945 14.0607L2.01575 14.1223V11.6491C2.01575 11.445 2.09545 11.2492 2.23721 11.1048C2.37897 10.9605 2.57118 10.8794 2.77166 10.8794C2.97213 10.8794 3.16447 10.9605 3.30623 11.1048C3.44799 11.2492 3.52756 11.445 3.52756 11.6491V14.5174C4.57589 14.7027 5.63842 14.792 6.70239 14.7843Z" fill="black" fill-opacity="0.2"/>
<path d="M6.64707 5.78408C7.01592 5.7854 7.38129 5.71212 7.72212 5.56855C8.06295 5.42497 8.37243 5.21395 8.63256 4.94769C8.89542 4.68359 9.10383 4.36874 9.24574 4.0216C9.38765 3.67445 9.46015 3.30202 9.45896 2.92601C9.46334 2.54496 9.39252 2.16686 9.25054 1.81427C9.10856 1.46167 8.89839 1.14176 8.63256 0.87352C8.37243 0.607252 8.06295 0.396172 7.72212 0.252598C7.38129 0.109024 7.01592 0.0358098 6.64707 0.0371268C6.27831 0.0363753 5.91302 0.109871 5.57227 0.253413C5.23152 0.396954 4.92193 0.60771 4.66147 0.87352C4.39724 1.14271 4.18847 1.46294 4.04742 1.81539C3.90636 2.16785 3.83592 2.54544 3.84011 2.92601C3.83937 3.3015 3.91149 3.67338 4.05246 4.02034C4.19344 4.36731 4.40042 4.68248 4.66147 4.94769C4.92193 5.2135 5.23152 5.42425 5.57227 5.56779C5.91302 5.71134 6.27831 5.78483 6.64707 5.78408Z" fill="#FF998A"/>
<path d="M6.64707 5.78408C7.01592 5.7854 7.38129 5.71212 7.72212 5.56855C8.06295 5.42497 8.37243 5.21395 8.63256 4.94769C8.89542 4.68359 9.10383 4.36874 9.24574 4.0216C9.38765 3.67445 9.46015 3.30202 9.45896 2.92601C9.46334 2.54496 9.39252 2.16686 9.25054 1.81427C9.10856 1.46167 8.89839 1.14176 8.63256 0.87352C8.37243 0.607252 8.06295 0.396172 7.72212 0.252598C7.38129 0.109024 7.01592 0.0358098 6.64707 0.0371268C6.27831 0.0363753 5.91302 0.109871 5.57227 0.253413C5.23152 0.396954 4.92193 0.60771 4.66147 0.87352C4.39724 1.14271 4.18847 1.46294 4.04742 1.81539C3.90636 2.16785 3.83592 2.54544 3.84011 2.92601C3.83937 3.3015 3.91149 3.67338 4.05246 4.02034C4.19344 4.36731 4.40042 4.68248 4.66147 4.94769C4.92193 5.2135 5.23152 5.42425 5.57227 5.56779C5.91302 5.71134 6.27831 5.78483 6.64707 5.78408Z" fill="black" fill-opacity="0.2"/>
<path d="M21.7046 13.2602C21.0137 12.5572 20.2025 11.9886 19.3109 11.5824C18.3986 12.4408 17.202 12.9172 15.9598 12.9165C14.7403 12.9161 13.5642 12.4554 12.659 11.6234C11.7996 12.0266 11.0166 12.5806 10.3459 13.2602C9.59767 14.0179 9.00449 14.9192 8.60054 15.9118C8.19659 16.9044 7.98992 17.9687 7.99252 19.0431C7.9941 19.2213 8.03546 19.3968 8.11345 19.5563C8.21458 19.7504 8.34949 19.9243 8.51159 20.0694C9.02059 20.5125 9.60934 20.8506 10.2451 21.0649L10.749 21.2342V18.0323C10.749 17.8282 10.8286 17.6324 10.9704 17.4881C11.1121 17.3437 11.3045 17.2626 11.5049 17.2626C11.7054 17.2626 11.8976 17.3437 12.0394 17.4881C12.1811 17.6324 12.2608 17.8282 12.2608 18.0323V21.6242C13.5044 21.8549 14.7662 21.9683 16.0303 21.9628C17.2515 21.964 18.4705 21.8576 19.6737 21.6447V18.0529C19.6737 17.8487 19.7534 17.6529 19.8952 17.5086C20.037 17.3643 20.2292 17.2832 20.4296 17.2832C20.6301 17.2832 20.8225 17.3643 20.9642 17.5086C21.106 17.6529 21.1855 17.8487 21.1855 18.0529V21.2906C21.8342 21.111 22.455 20.8399 23.0299 20.4851C23.4128 20.2678 23.7287 19.9461 23.9421 19.5563C24.0201 19.3968 24.0614 19.2213 24.063 19.0431C24.0649 17.9683 23.8575 16.9038 23.4526 15.9112C23.0478 14.9185 22.4537 14.0175 21.7046 13.2602Z" fill="#FF998A"/>
<path d="M21.7046 13.2602C21.0137 12.5572 20.2025 11.9886 19.3109 11.5824C18.3986 12.4408 17.202 12.9172 15.9598 12.9165C14.7403 12.9161 13.5642 12.4554 12.659 11.6234C11.7996 12.0266 11.0166 12.5806 10.3459 13.2602C9.59767 14.0179 9.00449 14.9192 8.60054 15.9118C8.19659 16.9044 7.98992 17.9687 7.99252 19.0431C7.9941 19.2213 8.03546 19.3968 8.11345 19.5563C8.21458 19.7504 8.34949 19.9243 8.51159 20.0694C9.02059 20.5125 9.60934 20.8506 10.2451 21.0649L10.749 21.2342V18.0323C10.749 17.8282 10.8286 17.6324 10.9704 17.4881C11.1121 17.3437 11.3045 17.2626 11.5049 17.2626C11.7054 17.2626 11.8976 17.3437 12.0394 17.4881C12.1811 17.6324 12.2608 17.8282 12.2608 18.0323V21.6242C13.5044 21.8549 14.7662 21.9683 16.0303 21.9628C17.2515 21.964 18.4705 21.8576 19.6737 21.6447V18.0529C19.6737 17.8487 19.7534 17.6529 19.8952 17.5086C20.037 17.3643 20.2292 17.2832 20.4296 17.2832C20.6301 17.2832 20.8225 17.3643 20.9642 17.5086C21.106 17.6529 21.1855 17.8487 21.1855 18.0529V21.2906C21.8342 21.111 22.455 20.8399 23.0299 20.4851C23.4128 20.2678 23.7287 19.9461 23.9421 19.5563C24.0201 19.3968 24.0614 19.2213 24.063 19.0431C24.0649 17.9683 23.8575 16.9038 23.4526 15.9112C23.0478 14.9185 22.4537 14.0175 21.7046 13.2602Z" fill="black" fill-opacity="0.2"/>
<path d="M12.4926 7.86737C12.4915 8.3278 12.58 8.78385 12.753 9.20925C12.926 9.63464 13.18 10.0209 13.5005 10.3457C13.8197 10.6718 14.199 10.9304 14.6168 11.1065C15.0345 11.2827 15.4824 11.3729 15.9346 11.372C16.3875 11.3733 16.8362 11.2833 17.2548 11.1072C17.6734 10.931 18.0536 10.6722 18.3735 10.3457C18.694 10.0209 18.9482 9.63464 19.1212 9.20925C19.2942 8.78385 19.3826 8.3278 19.3814 7.86737C19.3826 7.40695 19.2942 6.95083 19.1212 6.52543C18.9482 6.10004 18.694 5.71375 18.3735 5.38895C17.7261 4.73143 16.849 4.36234 15.9346 4.3627C15.0218 4.36314 14.1464 4.73221 13.5005 5.38895C13.18 5.71375 12.926 6.10004 12.753 6.52543C12.58 6.95083 12.4915 7.40695 12.4926 7.86737Z" fill="#FF998A"/>
<path d="M12.4926 7.86737C12.4915 8.3278 12.58 8.78385 12.753 9.20925C12.926 9.63464 13.18 10.0209 13.5005 10.3457C13.8197 10.6718 14.199 10.9304 14.6168 11.1065C15.0345 11.2827 15.4824 11.3729 15.9346 11.372C16.3875 11.3733 16.8362 11.2833 17.2548 11.1072C17.6734 10.931 18.0536 10.6722 18.3735 10.3457C18.694 10.0209 18.9482 9.63464 19.1212 9.20925C19.2942 8.78385 19.3826 8.3278 19.3814 7.86737C19.3826 7.40695 19.2942 6.95083 19.1212 6.52543C18.9482 6.10004 18.694 5.71375 18.3735 5.38895C17.7261 4.73143 16.849 4.36234 15.9346 4.3627C15.0218 4.36314 14.1464 4.73221 13.5005 5.38895C13.18 5.71375 12.926 6.10004 12.753 6.52543C12.58 6.95083 12.4915 7.40695 12.4926 7.86737Z" fill="black" fill-opacity="0.2"/>
</svg>
