<svg width="31" height="32" viewBox="0 0 31 32" fill="none" xmlns="http://www.w3.org/2000/svg">
<path d="M16.8189 18.8271C16.8181 17.795 17.0187 16.7728 17.4091 15.8191C17.7996 14.8653 18.3722 13.9988 19.0943 13.269C19.8165 12.5391 20.674 11.9603 21.6176 11.5657C22.5613 11.1711 23.5727 10.9685 24.5939 10.9693C25.0611 10.9716 25.5272 11.0159 25.9866 11.1019C25.7958 10.7871 25.5873 10.4836 25.3621 10.193C23.3012 7.66837 19.6979 5.72447 16.8127 8.17964C16.5552 8.41135 16.3113 8.65793 16.0821 8.91811C15.4387 9.75284 14.8918 10.6591 14.4521 11.6194C14.3992 11.7317 14.325 11.8324 14.2336 11.9158C14.1422 11.9991 14.0355 12.0634 13.9195 12.1051C13.8035 12.1467 13.6805 12.1647 13.5575 12.1583C13.4346 12.1518 13.3142 12.1211 13.2031 12.0675C13.0919 12.0141 12.9923 11.9391 12.9099 11.8467C12.8274 11.7544 12.7637 11.6465 12.7225 11.5292C12.6813 11.412 12.6635 11.2877 12.6699 11.1635C12.6763 11.0393 12.7067 10.9175 12.7597 10.8052C12.8159 10.6853 12.8721 10.578 12.9346 10.4644C11.3657 10.4161 9.81166 10.1419 8.31942 9.65018C7.1964 9.26878 6.14192 8.70608 5.19692 7.98394C4.24439 8.56912 3.39925 9.31649 2.69892 10.193C0.0385468 13.4876 0.0323141 17.6216 1.30629 21.5536V21.642C2.60525 25.5741 5.3219 30.7748 9.64968 31.854C10.3731 32.0213 11.1245 32.0213 11.8479 31.854C12.6785 31.6773 13.3466 31.0588 14.2522 31.1661C14.9204 31.2418 15.5012 31.6836 16.1257 31.8603C16.8553 32.0466 17.6193 32.0466 18.3489 31.8603C20.9219 31.2292 22.9202 29.1211 24.4003 26.6975C22.3688 26.6496 20.4368 25.7985 19.0193 24.327C17.6018 22.8555 16.8118 20.8808 16.8189 18.8271Z" fill="#FF998A"/>
<path d="M16.8189 18.8271C16.8181 17.795 17.0187 16.7728 17.4091 15.8191C17.7996 14.8653 18.3722 13.9988 19.0943 13.269C19.8165 12.5391 20.674 11.9603 21.6176 11.5657C22.5613 11.1711 23.5727 10.9685 24.5939 10.9693C25.0611 10.9716 25.5272 11.0159 25.9866 11.1019C25.7958 10.7871 25.5873 10.4836 25.3621 10.193C23.3012 7.66837 19.6979 5.72447 16.8127 8.17964C16.5552 8.41135 16.3113 8.65793 16.0821 8.91811C15.4387 9.75284 14.8918 10.6591 14.4521 11.6194C14.3992 11.7317 14.325 11.8324 14.2336 11.9158C14.1422 11.9991 14.0355 12.0634 13.9195 12.1051C13.8035 12.1467 13.6805 12.1647 13.5575 12.1583C13.4346 12.1518 13.3142 12.1211 13.2031 12.0675C13.0919 12.0141 12.9923 11.9391 12.9099 11.8467C12.8274 11.7544 12.7637 11.6465 12.7225 11.5292C12.6813 11.412 12.6635 11.2877 12.6699 11.1635C12.6763 11.0393 12.7067 10.9175 12.7597 10.8052C12.8159 10.6853 12.8721 10.578 12.9346 10.4644C11.3657 10.4161 9.81166 10.1419 8.31942 9.65018C7.1964 9.26878 6.14192 8.70608 5.19692 7.98394C4.24439 8.56912 3.39925 9.31649 2.69892 10.193C0.0385468 13.4876 0.0323141 17.6216 1.30629 21.5536V21.642C2.60525 25.5741 5.3219 30.7748 9.64968 31.854C10.3731 32.0213 11.1245 32.0213 11.8479 31.854C12.6785 31.6773 13.3466 31.0588 14.2522 31.1661C14.9204 31.2418 15.5012 31.6836 16.1257 31.8603C16.8553 32.0466 17.6193 32.0466 18.3489 31.8603C20.9219 31.2292 22.9202 29.1211 24.4003 26.6975C22.3688 26.6496 20.4368 25.7985 19.0193 24.327C17.6018 22.8555 16.8118 20.8808 16.8189 18.8271Z" fill="black" fill-opacity="0.2"/>
<path d="M7.72613 7.32763C9.4291 8.13663 11.2839 8.56707 13.1655 8.58992C13.0549 7.96904 12.8856 7.36034 12.6598 6.77221C11.8834 4.69014 10.43 2.93646 8.53801 1.79876C6.8522 0.814095 4.97929 0.201093 3.04238 0C3.12487 1.00889 3.35429 1.9999 3.72314 2.9411C4.46545 4.8592 5.89433 6.42506 7.72613 7.32763Z" fill="#FF998A"/>
<path d="M7.72613 7.32763C9.4291 8.13663 11.2839 8.56707 13.1655 8.58992C13.0549 7.96904 12.8856 7.36034 12.6598 6.77221C11.8834 4.69014 10.43 2.93646 8.53801 1.79876C6.8522 0.814095 4.97929 0.201093 3.04238 0C3.12487 1.00889 3.35429 1.9999 3.72314 2.9411C4.46545 4.8592 5.89433 6.42506 7.72613 7.32763Z" fill="black" fill-opacity="0.2"/>
<path d="M28.7905 23.0243C29.3392 22.4712 29.7744 21.814 30.0712 21.0905C30.3681 20.367 30.5207 19.5914 30.5204 18.8082C30.5212 18.024 30.3688 17.2473 30.072 16.5228C29.7751 15.7982 29.3396 15.14 28.7905 14.5859C28.2431 14.0319 27.5927 13.5928 26.8768 13.2939C26.1608 12.9949 25.3935 12.842 24.6189 12.8439C23.8433 12.8419 23.075 12.9947 22.358 13.2937C21.641 13.5926 20.9896 14.0318 20.441 14.5859C19.886 15.1404 19.4456 15.801 19.1454 16.5291C18.8452 17.2572 18.6912 18.0384 18.6924 18.8272C18.6913 19.6099 18.8429 20.3852 19.1387 21.1087C19.4344 21.8321 19.8685 22.4896 20.416 23.0433C20.9643 23.5982 21.6156 24.0383 22.3325 24.3383C23.0495 24.6383 23.8179 24.7923 24.5939 24.7915C25.3744 24.793 26.1474 24.6375 26.8679 24.3341C27.5884 24.0307 28.242 23.5855 28.7905 23.0243ZM24.2754 21.295C24.1095 21.478 23.8791 21.5878 23.6338 21.6008C23.3885 21.6138 23.148 21.5289 22.964 21.3644L21.4276 20.0011C21.2416 19.8347 21.1281 19.6008 21.1117 19.3502C21.0954 19.0997 21.1775 18.8527 21.3403 18.663C21.5049 18.475 21.7364 18.3603 21.9843 18.3438C22.2322 18.3272 22.4766 18.4102 22.6643 18.5747L23.5135 19.3321L26.5798 15.9617C26.6624 15.8703 26.7622 15.7963 26.8733 15.744C26.9843 15.6916 27.1045 15.6619 27.227 15.6566C27.3494 15.6513 27.4717 15.6706 27.5868 15.7132C27.7019 15.7558 27.8074 15.821 27.8975 15.9049C27.9882 15.989 28.0615 16.0904 28.1134 16.2032C28.1653 16.3159 28.1946 16.4379 28.1999 16.5622C28.2051 16.6865 28.1862 16.8105 28.1439 16.9273C28.1017 17.0441 28.0371 17.1514 27.9538 17.243L24.2754 21.295Z" fill="#FF998A"/>
<path d="M28.7905 23.0243C29.3392 22.4712 29.7744 21.814 30.0712 21.0905C30.3681 20.367 30.5207 19.5914 30.5204 18.8082C30.5212 18.024 30.3688 17.2473 30.072 16.5228C29.7751 15.7982 29.3396 15.14 28.7905 14.5859C28.2431 14.0319 27.5927 13.5928 26.8768 13.2939C26.1608 12.9949 25.3935 12.842 24.6189 12.8439C23.8433 12.8419 23.075 12.9947 22.358 13.2937C21.641 13.5926 20.9896 14.0318 20.441 14.5859C19.886 15.1404 19.4456 15.801 19.1454 16.5291C18.8452 17.2572 18.6912 18.0384 18.6924 18.8272C18.6913 19.6099 18.8429 20.3852 19.1387 21.1087C19.4344 21.8321 19.8685 22.4896 20.416 23.0433C20.9643 23.5982 21.6156 24.0383 22.3325 24.3383C23.0495 24.6383 23.8179 24.7923 24.5939 24.7915C25.3744 24.793 26.1474 24.6375 26.8679 24.3341C27.5884 24.0307 28.242 23.5855 28.7905 23.0243ZM24.2754 21.295C24.1095 21.478 23.8791 21.5878 23.6338 21.6008C23.3885 21.6138 23.148 21.5289 22.964 21.3644L21.4276 20.0011C21.2416 19.8347 21.1281 19.6008 21.1117 19.3502C21.0954 19.0997 21.1775 18.8527 21.3403 18.663C21.5049 18.475 21.7364 18.3603 21.9843 18.3438C22.2322 18.3272 22.4766 18.4102 22.6643 18.5747L23.5135 19.3321L26.5798 15.9617C26.6624 15.8703 26.7622 15.7963 26.8733 15.744C26.9843 15.6916 27.1045 15.6619 27.227 15.6566C27.3494 15.6513 27.4717 15.6706 27.5868 15.7132C27.7019 15.7558 27.8074 15.821 27.8975 15.9049C27.9882 15.989 28.0615 16.0904 28.1134 16.2032C28.1653 16.3159 28.1946 16.4379 28.1999 16.5622C28.2051 16.6865 28.1862 16.8105 28.1439 16.9273C28.1017 17.0441 28.0371 17.1514 27.9538 17.243L24.2754 21.295Z" fill="black" fill-opacity="0.2"/>
</svg>
