<svg width="16" height="21" viewBox="0 0 16 21" fill="none" xmlns="http://www.w3.org/2000/svg">
<path d="M8 20.375C7.88333 20.375 7.775 20.3667 7.675 20.35C7.575 20.3333 7.475 20.3083 7.375 20.275C5.125 19.525 3.33333 18.1375 2 16.1125C0.666667 14.0875 0 11.9083 0 9.575V4.85C0 4.43333 0.120833 4.05833 0.3625 3.725C0.604167 3.39167 0.916667 3.15 1.3 3L7.3 0.75C7.53333 0.666667 7.76667 0.625 8 0.625C8.23333 0.625 8.46667 0.666667 8.7 0.75L14.7 3C15.0833 3.15 15.3958 3.39167 15.6375 3.725C15.8792 4.05833 16 4.43333 16 4.85V9.575C16 10.825 15.8042 12.0458 15.4125 13.2375C15.0208 14.4292 14.4583 15.5083 13.725 16.475C13.5917 16.6583 13.4125 16.7542 13.1875 16.7625C12.9625 16.7708 12.7667 16.6917 12.6 16.525L10 13.925C9.7 14.1083 9.37917 14.2458 9.0375 14.3375C8.69583 14.4292 8.35 14.475 8 14.475C6.9 14.475 5.95833 14.0833 5.175 13.3C4.39167 12.5167 4 11.575 4 10.475C4 9.375 4.39167 8.43333 5.175 7.65C5.95833 6.86667 6.9 6.475 8 6.475C9.1 6.475 10.0417 6.86667 10.825 7.65C11.6083 8.43333 12 9.375 12 10.475C12 10.8417 11.9542 11.1958 11.8625 11.5375C11.7708 11.8792 11.6333 12.2083 11.45 12.525L12.95 14.025C13.2833 13.3417 13.5417 12.625 13.725 11.875C13.9083 11.125 14 10.3583 14 9.575V4.85L8 2.6L2 4.85V9.575C2 11.5917 2.56667 13.425 3.7 15.075C4.83333 16.725 6.26667 17.825 8 18.375C8.26667 18.2917 8.52917 18.1917 8.7875 18.075C9.04583 17.9583 9.3 17.825 9.55 17.675C9.78333 17.5417 10.0375 17.4917 10.3125 17.525C10.5875 17.5583 10.8083 17.6917 10.975 17.925C11.1417 18.1583 11.1958 18.4083 11.1375 18.675C11.0792 18.9417 10.9333 19.15 10.7 19.3C10.3667 19.5 10.0333 19.6792 9.7 19.8375C9.36667 19.9958 9.00833 20.1417 8.625 20.275C8.525 20.3083 8.425 20.3333 8.325 20.35C8.225 20.3667 8.11667 20.375 8 20.375ZM8 12.475C8.55 12.475 9.02083 12.2792 9.4125 11.8875C9.80417 11.4958 10 11.025 10 10.475C10 9.925 9.80417 9.45417 9.4125 9.0625C9.02083 8.67083 8.55 8.475 8 8.475C7.45 8.475 6.97917 8.67083 6.5875 9.0625C6.19583 9.45417 6 9.925 6 10.475C6 11.025 6.19583 11.4958 6.5875 11.8875C6.97917 12.2792 7.45 12.475 8 12.475Z" fill="#EBA79D"/>
</svg>
