<svg width="41" height="41" viewBox="0 0 41 41" fill="none" xmlns="http://www.w3.org/2000/svg">
<path d="M11.9297 19.5345L19.73 19.5345L17.4215 17.8069C17.2079 17.647 17.0674 17.4102 17.031 17.1484C16.9945 16.8866 17.0651 16.6212 17.2271 16.4105C17.3071 16.3059 17.4074 16.2179 17.5221 16.1516C17.6368 16.0853 17.7636 16.0421 17.8954 16.0243C18.0271 16.0065 18.1611 16.0146 18.2897 16.048C18.4183 16.0814 18.5389 16.1395 18.6446 16.219L23.3507 19.738L23.3871 19.77C23.4241 19.8011 23.4593 19.8344 23.4924 19.8697L23.541 19.9295C23.569 19.9665 23.5947 20.0052 23.618 20.0452L23.6544 20.109C23.6762 20.1567 23.6938 20.2061 23.7071 20.2567L23.7071 20.3125C23.7214 20.3849 23.7295 20.4583 23.7313 20.532C23.7295 20.6043 23.7214 20.6764 23.7071 20.7474L23.7071 20.8032C23.6938 20.8538 23.6762 20.9032 23.6544 20.9509L23.618 21.0147C23.5947 21.0547 23.569 21.0934 23.541 21.1304L23.4924 21.1902C23.4604 21.2265 23.4252 21.2599 23.3871 21.29L23.3507 21.3259L18.6446 24.8409C18.4696 24.9742 18.2542 25.0459 18.033 25.0444C17.8758 25.0447 17.7206 25.0087 17.58 24.9395C17.4394 24.8702 17.3171 24.7695 17.223 24.6454C17.061 24.4348 16.9905 24.1694 17.027 23.9075C17.0634 23.6457 17.2038 23.4089 17.4174 23.249L19.7259 21.5254L11.9256 21.5254L11.9256 29.1059C11.9256 30.5481 12.5072 31.9313 13.5424 32.9512C14.5776 33.971 15.9817 34.5439 17.4458 34.5439L25.238 34.5439C25.9623 34.5434 26.6795 34.4023 27.3485 34.1287C28.0176 33.8551 28.6254 33.4545 29.1372 32.9495C29.6491 32.4445 30.0549 31.8452 30.3317 31.1857C30.6084 30.5262 30.7505 29.8195 30.75 29.1059L30.75 11.978C30.7505 11.2646 30.6083 10.558 30.3316 9.89879C30.0548 9.23952 29.6489 8.64049 29.137 8.13584C28.6251 7.6312 28.0173 7.23086 27.3482 6.95772C26.6792 6.68459 25.9622 6.54395 25.238 6.54395L17.4458 6.54395C15.9825 6.54394 14.579 7.1164 13.5439 8.13536C12.5087 9.15432 11.9267 10.5364 11.9256 11.978L11.9256 16.6939L11.9297 19.5345ZM25.8414 11.954C25.8409 11.8229 25.8667 11.693 25.9174 11.5717C25.9681 11.4505 26.0426 11.3403 26.1368 11.2476C26.2309 11.1548 26.3427 11.0814 26.4658 11.0314C26.5889 10.9815 26.7208 10.9561 26.8539 10.9566C26.987 10.9561 27.1189 10.9815 27.242 11.0314C27.3651 11.0814 27.4769 11.1548 27.5711 11.2476C27.6652 11.3403 27.7397 11.4505 27.7904 11.5717C27.8411 11.693 27.8669 11.8229 27.8664 11.954L27.8664 29.1498C27.8664 29.4144 27.7597 29.668 27.5698 29.855C27.3799 30.0421 27.1224 30.1472 26.8539 30.1472C26.5854 30.1472 26.3278 30.0421 26.1379 29.855C25.9481 29.668 25.8414 29.4144 25.8414 29.1498L25.8414 11.954Z" fill="#EBA79D"/>
<path d="M8.1875 21.5294L11.9256 21.5294C12.1942 21.5294 12.4517 21.4243 12.6416 21.2373C12.8314 21.0502 12.9381 20.7965 12.9381 20.532C12.9381 20.2674 12.8314 20.0137 12.6416 19.8266C12.4517 19.6396 12.1942 19.5345 11.9256 19.5345L8.1875 19.5345C7.91897 19.5345 7.66141 19.6396 7.47153 19.8266C7.28165 20.0137 7.175 20.2674 7.175 20.532C7.175 20.7965 7.28165 21.0502 7.47153 21.2373C7.66141 21.4243 7.91897 21.5294 8.1875 21.5294Z" fill="#EBA79D"/>
</svg>
