<svg width="15" height="16" viewBox="0 0 15 16" fill="none" xmlns="http://www.w3.org/2000/svg">
<path d="M6.5625 0.183594H14.0625C14.5802 0.183594 15 0.603377 15 1.1211V14.2461C15 14.7639 14.5802 15.1836 14.0625 15.1836H6.56247C6.04474 15.1836 5.62496 14.7639 5.62496 14.2461V1.1211C5.62499 0.603377 6.04474 0.183594 6.5625 0.183594V0.183594ZM8.43749 8.6211C8.95527 8.6211 9.375 8.20131 9.375 7.68359C9.375 7.1658 8.95527 6.74608 8.43749 6.74608C7.91971 6.74608 7.49998 7.1658 7.49998 7.68359C7.49998 8.20134 7.91971 8.6211 8.43749 8.6211Z" fill="#F29191"/>
<path d="M9.05991e-06 7.68359L3.28125 4.87109V6.74608H4.6875V8.62107H3.28125V10.4961L9.05991e-06 7.68359Z" fill="#F29191"/>
</svg>
