<svg width="15" height="18" viewBox="0 0 15 18" fill="none" xmlns="http://www.w3.org/2000/svg">
<path d="M7.75611 6.10027C8.15581 6.10027 8.55163 6.02129 8.92087 5.8679C9.29011 5.71452 9.62554 5.48974 9.90805 5.20634C10.1906 4.92295 10.4146 4.58656 10.5673 4.21635C10.72 3.84614 10.7984 3.44938 10.7981 3.04878C10.7981 2.24019 10.4776 1.46469 9.90713 0.892932C9.33665 0.321175 8.56288 0 7.75611 0C6.94933 0 6.1757 0.321175 5.60523 0.892932C5.03475 1.46469 4.71416 2.24019 4.71416 3.04878C4.71416 3.85761 5.03456 4.63336 5.60496 5.20555C6.17536 5.77774 6.94909 6.09955 7.75611 6.10027Z" fill="#EBA79D"/>
<path d="M15 14.9919C14.9993 13.0668 14.2358 11.2209 12.8774 9.8599C11.519 8.49894 9.67684 7.73442 7.75611 7.73442C5.83538 7.73442 3.99338 8.49894 2.63497 9.8599C1.27655 11.2209 0.512924 13.0668 0.512207 14.9919C0.512207 19.0027 15 19.0027 15 14.9919Z" fill="#EBA79D"/>
</svg>
