<svg width="18" height="18" viewBox="0 0 18 18" fill="none" xmlns="http://www.w3.org/2000/svg">
<circle cx="9" cy="9" r="9" fill="#F8963F"/>
<path d="M8.44672 4.43211L12.5184 7.20197C12.7835 7.38246 12.9985 7.61548 13.1465 7.88278C13.2945 8.15009 13.3715 8.44446 13.3715 8.74288C13.3715 9.04129 13.2945 9.3356 13.1465 9.60291C12.9985 9.87022 12.7835 10.1032 12.5184 10.2837L8.44672 13.0559C8.18856 13.2308 7.88118 13.3378 7.55897 13.3647C7.23675 13.3916 6.91243 13.3374 6.62266 13.2083C6.33289 13.0792 6.08906 12.8802 5.91852 12.6337C5.74797 12.3872 5.65747 12.1029 5.65723 11.8129V5.67281C5.65697 5.38259 5.74722 5.09807 5.91775 4.85137C6.08829 4.60467 6.33236 4.4056 6.62241 4.2766C6.91245 4.14759 7.23701 4.09377 7.55935 4.12125C7.88169 4.14873 8.18901 4.25641 8.44672 4.43211Z" fill="white"/>
</svg>
