<svg width="26" height="31" viewBox="0 0 26 31" fill="none" xmlns="http://www.w3.org/2000/svg">
<path d="M20.5288 8.96814C20.1468 8.96914 19.7684 8.88736 19.4153 8.72747C19.0621 8.56757 18.7411 8.33271 18.4706 8.03635C18.2002 7.73998 17.9857 7.38793 17.8393 7.00035C17.6929 6.61277 17.6175 6.19727 17.6176 5.77765V2.25995e-05H5.38871C5.14443 -0.00125371 4.90242 0.0515424 4.6771 0.155211C4.45179 0.258879 4.24785 0.411333 4.07731 0.603465C3.90241 0.790794 3.7635 1.01487 3.66913 1.26238C3.57475 1.50989 3.52682 1.77574 3.52798 2.04407V15.2662C4.60938 14.7398 5.77829 14.465 6.96111 14.4591C8.50081 14.4539 10.0132 14.9052 11.3388 15.7654C12.6645 16.6256 13.7544 17.8629 14.4934 19.3467H22.5956C22.8687 19.3467 23.1306 19.4659 23.3238 19.6781C23.5169 19.8903 23.6255 20.178 23.6255 20.4781C23.6255 20.7782 23.5169 21.0659 23.3238 21.2781C23.1306 21.4903 22.8687 21.6095 22.5956 21.6095H15.2898C15.461 22.3491 15.5487 23.1091 15.5508 23.8723C15.5504 25.2274 15.2826 26.5664 14.7658 27.7969C14.249 29.0274 13.4953 30.1202 12.557 31H23.6393C24.1331 31.0007 24.6071 30.7864 24.9575 30.4041C25.1297 30.2149 25.2661 29.9903 25.3592 29.7431C25.4523 29.4959 25.5001 29.231 25.5 28.9635V8.99077L20.5288 8.96814ZM6.63841 3.95237H10.5728C10.8459 3.95237 11.1078 4.07156 11.301 4.28373C11.4941 4.49591 11.6027 4.78369 11.6027 5.08375C11.6027 5.38381 11.4941 5.67157 11.301 5.88374C11.1078 6.09592 10.8459 6.21511 10.5728 6.21511H6.63841C6.36526 6.21511 6.1032 6.09592 5.91005 5.88374C5.7169 5.67157 5.60848 5.38381 5.60848 5.08375C5.60848 4.78369 5.7169 4.49591 5.91005 4.28373C6.1032 4.07156 6.36526 3.95237 6.63841 3.95237ZM14.514 11.4195H6.63841C6.36526 11.4195 6.1032 11.3003 5.91005 11.0881C5.7169 10.8759 5.60848 10.5882 5.60848 10.2881C5.60848 9.98803 5.7169 9.70028 5.91005 9.4881C6.1032 9.27592 6.36526 9.15671 6.63841 9.15671H14.4934C14.7665 9.15671 15.0284 9.27592 15.2216 9.4881C15.4147 9.70028 15.5233 9.98803 15.5233 10.2881C15.5233 10.5882 15.4147 10.8759 15.2216 11.0881C15.0284 11.3003 14.7665 11.4195 14.4934 11.4195H14.514ZM22.5887 26.6705H18.9564C18.6833 26.6705 18.4214 26.5514 18.2282 26.3392C18.0351 26.127 17.9265 25.8392 17.9265 25.5392C17.9265 25.2391 18.0351 24.9513 18.2282 24.7392C18.4214 24.527 18.6833 24.4078 18.9564 24.4078H22.5887C22.8619 24.4078 23.1238 24.527 23.3169 24.7392C23.5101 24.9513 23.6187 25.2391 23.6187 25.5392C23.6187 25.8392 23.5101 26.127 23.3169 26.3392C23.1238 26.5514 22.8619 26.6705 22.5887 26.6705Z" fill="white"/>
<path d="M20.5288 6.70535H25.4794L19.6637 0.505385V5.78516C19.6655 5.90799 19.6893 6.02924 19.7337 6.14196C19.7782 6.25468 19.8423 6.35667 19.9227 6.44212C20.003 6.52757 20.0979 6.59481 20.2019 6.63998C20.3059 6.68515 20.417 6.70735 20.5288 6.70535Z" fill="white"/>
<path d="M6.99545 30.9774C7.84774 30.9794 8.69182 30.7958 9.47911 30.4372C10.2664 30.0786 10.9812 29.552 11.5821 28.888C12.1856 28.2272 12.6643 27.442 12.9907 26.5773C13.3171 25.7127 13.4848 24.7857 13.484 23.8496C13.4855 22.9134 13.3181 21.9862 12.9917 21.1214C12.6653 20.2567 12.1862 19.4715 11.5821 18.8112C10.9812 18.1472 10.2664 17.6207 9.47911 17.262C8.69182 16.9034 7.84774 16.7198 6.99545 16.7219C6.14207 16.7193 5.29658 16.9025 4.50811 17.2612C3.71964 17.6198 3.00371 18.1466 2.4018 18.8112C1.79888 19.4725 1.32071 20.2579 0.99435 21.1224C0.667995 21.987 0.500016 22.9137 0.5 23.8496C0.501539 25.7395 1.18541 27.5515 2.4018 28.888C3.00371 29.5526 3.71964 30.0794 4.50811 30.4381C5.29658 30.7967 6.14207 30.98 6.99545 30.9774ZM5.13472 21.7C5.13439 21.4872 5.18817 21.2785 5.29029 21.0977C5.3924 20.9168 5.53869 20.771 5.71239 20.6768C5.88609 20.5826 6.08033 20.5437 6.27312 20.5646C6.46591 20.5854 6.64956 20.6652 6.80318 20.7949L9.37802 22.937C9.50608 23.0439 9.6098 23.1819 9.68127 23.3403C9.75274 23.4986 9.79007 23.6729 9.79007 23.8496C9.79007 24.0263 9.75274 24.2006 9.68127 24.359C9.6098 24.5173 9.50608 24.6553 9.37802 24.7623L6.80318 26.8893C6.64956 27.0189 6.46591 27.0987 6.27312 27.1196C6.08033 27.1405 5.88609 27.1016 5.71239 27.0074C5.53869 26.9131 5.3924 26.7673 5.29029 26.5865C5.18817 26.4056 5.13439 26.197 5.13472 25.9842V21.7Z" fill="white"/>
<path d="M6.80318 26.8893L9.37803 24.7472C9.50609 24.6402 9.6098 24.5022 9.68127 24.3439C9.75274 24.1856 9.79007 24.0113 9.79007 23.8345C9.79007 23.6578 9.75274 23.4835 9.68127 23.3252C9.6098 23.1669 9.50609 23.0288 9.37803 22.9219L6.80318 20.7798C6.64956 20.6501 6.46591 20.5703 6.27312 20.5495C6.08033 20.5286 5.88609 20.5675 5.71239 20.6617C5.53869 20.756 5.3924 20.9018 5.29029 21.0826C5.18818 21.2634 5.13439 21.4721 5.13472 21.6849L5.13472 25.9842C5.13439 26.197 5.18817 26.4056 5.29029 26.5865C5.3924 26.7673 5.53869 26.9131 5.71239 27.0074C5.88609 27.1016 6.08033 27.1405 6.27312 27.1196C6.46591 27.0987 6.64956 27.0189 6.80318 26.8893Z" fill="#FFAFA3"/>
</svg>
