<svg width="18" height="16" viewBox="0 0 18 16" fill="none" xmlns="http://www.w3.org/2000/svg">
<path fill-rule="evenodd" clip-rule="evenodd" d="M6.83777 10.4171C9.21584 10.4171 11.0834 8.53203 11.0834 6.28034C11.0834 4.02865 9.21584 2.14355 6.83777 2.14355C4.4597 2.14355 2.59216 4.02865 2.59216 6.28034C2.59216 8.53203 4.4597 10.4171 6.83777 10.4171ZM6.83777 12.4171C8.09551 12.4171 9.26641 12.0518 10.2466 11.4233L14.9292 15.6063C15.5595 16.1693 16.5358 16.1229 17.1099 15.5025C17.6839 14.8821 17.6382 13.9227 17.0079 13.3596L12.3388 9.18873C12.8138 8.32315 13.0834 7.33268 13.0834 6.28034C13.0834 2.89109 10.2871 0.143555 6.83777 0.143555C3.38842 0.143555 0.592163 2.89109 0.592163 6.28034C0.592163 9.6696 3.38842 12.4171 6.83777 12.4171ZM4.52958 5.39357C4.67548 5.15912 4.6037 4.85079 4.36924 4.70488C4.13479 4.55898 3.82646 4.63076 3.68055 4.86522C3.43814 5.25475 3.22323 5.974 3.33947 6.75375C3.4607 7.56694 3.93854 8.41875 5.03583 9.01985C5.27801 9.15252 5.58189 9.06374 5.71456 8.82156C5.84723 8.57937 5.75846 8.27549 5.51627 8.14282C4.69314 7.69191 4.40363 7.10997 4.32854 6.6063C4.24847 6.06921 4.40827 5.58849 4.52958 5.39357Z" fill="#EBA79D"/>
</svg>
