<svg width="20" height="21" viewBox="0 0 20 21" fill="none" xmlns="http://www.w3.org/2000/svg">
<path d="M0.069846 13.8737L2.04011 17.3163C2.10755 17.4333 2.21811 17.5187 2.34778 17.5539C2.47745 17.5891 2.61567 17.5711 2.7323 17.5041L5.3208 16.0137C5.87605 16.4642 6.49792 16.8243 7.1638 17.0808V20.0943C7.1638 20.2297 7.21693 20.3597 7.31172 20.4557C7.4065 20.5518 7.53522 20.6061 7.66966 20.6069H11.616C11.6826 20.6069 11.7487 20.5937 11.8102 20.5679C11.8718 20.5421 11.9278 20.5042 11.9748 20.4566C12.0218 20.4089 12.059 20.3524 12.0843 20.2902C12.1095 20.228 12.1222 20.1615 12.1218 20.0943V17.0808C12.7877 16.8243 13.4096 16.4642 13.9648 16.0137L16.5533 17.5041C16.67 17.5711 16.8082 17.5891 16.9378 17.5539C17.0675 17.5187 17.1782 17.4333 17.2457 17.3163L19.2188 13.8737C19.2854 13.7562 19.3031 13.6169 19.2682 13.4863C19.2333 13.3556 19.1486 13.2441 19.0325 13.1762L16.4409 11.6681C16.4977 11.3142 16.5274 10.9564 16.5298 10.598C16.5273 10.2405 16.4975 9.88378 16.4409 9.5309L19.0325 8.02276C19.1486 7.95481 19.2333 7.84334 19.2682 7.71269C19.3031 7.58204 19.2854 7.44277 19.2188 7.32527L17.2457 3.88263C17.1782 3.76563 17.0675 3.68022 16.9378 3.64504C16.8082 3.60987 16.67 3.62782 16.5533 3.69489L13.9648 5.20005C13.409 4.74971 12.7873 4.3888 12.1218 4.13005V1.11661C12.1218 0.981431 12.0686 0.85184 11.9738 0.756256C11.8789 0.660671 11.7501 0.606934 11.616 0.606934H7.66966C7.53574 0.607716 7.40758 0.661641 7.31287 0.757056C7.21817 0.852472 7.16458 0.981672 7.1638 1.11661V4.13005C6.49836 4.3888 5.87667 4.74971 5.3208 5.20005L2.7323 3.69489C2.61567 3.62782 2.47745 3.60987 2.34778 3.64504C2.21811 3.68022 2.10755 3.76563 2.04011 3.88263L0.069846 7.32527C0.0363686 7.38318 0.0144666 7.44718 0.00556689 7.51359C-0.0033328 7.58001 0.000953004 7.64754 0.0179894 7.71232C0.0350257 7.77711 0.0645745 7.83786 0.104947 7.89112C0.145319 7.94438 0.195748 7.98914 0.253294 8.02276L2.84771 9.5309C2.78867 9.88352 2.75798 10.2404 2.75599 10.598C2.75785 10.9566 2.78854 11.3144 2.84771 11.6681L0.253294 13.1762C0.195455 13.2095 0.144676 13.2541 0.10408 13.3073C0.0634839 13.3606 0.0338987 13.4214 0.0168338 13.4863C-0.000231102 13.5512 -0.00440952 13.6189 0.0047002 13.6854C0.0138099 13.7519 0.0359728 13.8159 0.069846 13.8737ZM9.64281 8.47873C9.9177 8.47906 10.1898 8.53404 10.4436 8.64042C10.6974 8.7468 10.9279 8.90252 11.122 9.09872C11.3171 9.29406 11.4722 9.52624 11.5783 9.78195C11.6843 10.0377 11.7393 10.3119 11.7402 10.589C11.7371 11.1485 11.515 11.6841 11.122 12.0793C10.9279 12.2755 10.6974 12.4313 10.4436 12.5377C10.1898 12.6441 9.9177 12.699 9.64281 12.6993C9.36792 12.699 9.0958 12.6441 8.842 12.5377C8.58819 12.4313 8.35769 12.2755 8.16367 12.0793C7.77066 11.6841 7.5485 11.1485 7.54543 10.589C7.54631 10.3119 7.60127 10.0377 7.70736 9.78195C7.81345 9.52624 7.96853 9.29406 8.16367 9.09872C8.55648 8.70465 9.08849 8.48379 9.64281 8.4847V8.47873Z" fill="#EBA79D"/>
</svg>
